<?xml version="1.0" encoding="UTF-8" standalone="no"?>
<!-- Created with Inkscape (http://www.inkscape.org/) -->

<svg
   version="1.1"
   id="svg2"
   width="586.66669"
   height="112"
   viewBox="0 0 586.66669 112"
   sodipodi:docname="IM red_white_blackoutline.eps"
   xmlns:inkscape="http://www.inkscape.org/namespaces/inkscape"
   xmlns:sodipodi="http://sodipodi.sourceforge.net/DTD/sodipodi-0.dtd"
   xmlns="http://www.w3.org/2000/svg"
   xmlns:svg="http://www.w3.org/2000/svg">
  <defs
     id="defs6" />
  <sodipodi:namedview
     id="namedview4"
     pagecolor="#ffffff"
     bordercolor="#000000"
     borderopacity="0.25"
     inkscape:showpageshadow="2"
     inkscape:pageopacity="0.0"
     inkscape:pagecheckerboard="0"
     inkscape:deskcolor="#d1d1d1" />
  <g
     id="g8"
     inkscape:groupmode="layer"
     inkscape:label="ink_ext_XXXXXX"
     transform="matrix(1.3333333,0,0,-1.3333333,0,112)">
    <g
       id="g10"
       transform="scale(0.1)">
      <path
         d="m 4361.91,802.922 h -134.15 c 0,0 0,-90.246 0,-145.574 -52.91,57.019 -135.07,145.574 -135.07,145.574 h -226.16 c 0,0 95.35,-108.18 107.65,-122.137 0,-22.305 0,-444.426 0,-444.426 h 165.71 c 0,0 0,179.582 0,269.661 40.56,-44.543 78.87,-86.645 87.87,-96.528 0,-21.14 0,-187.785 0,-187.785 L 4393.12,42.6484 V 802.922 h -31.21"
         style="fill:#ffffff;fill-opacity:1;fill-rule:nonzero;stroke:none"
         id="path12" />
      <path
         d="m 3876.37,641.973 v 160.949 h -326.6 v -402.43 l 120.55,-165.543 h 206.05 v 169.883 c 0,0 -120.48,0 -161.06,0 0,19.922 0,29.621 0,49.547 40.58,0 161.06,0 161.06,0 v 152.766 c 0,0 -120.48,0 -161.06,0 0,15.183 0,19.644 0,34.828 40.58,0 161.06,0 161.06,0"
         style="fill:#ffffff;fill-opacity:1;fill-rule:nonzero;stroke:none"
         id="path14" />
      <path
         d="M 3248.46,802.922 H 3027.29 V 236.359 h 380.95 l 129.24,172.696 z m -58.42,-399.031 c 0,34.398 0,115.129 0,196.605 52.5,-70.781 107.71,-145.219 145.82,-196.605 -56.04,0 -112.71,0 -145.82,0"
         style="fill:#ffffff;fill-opacity:1;fill-rule:nonzero;stroke:none"
         id="path16" />
      <path
         d="M 2960.73,803.262 H 2826.82 V 236.359 h 165.13 v 566.903 h -31.22"
         style="fill:#ffffff;fill-opacity:1;fill-rule:nonzero;stroke:none"
         id="path18" />
      <path
         d="M 2755.46,802.922 H 2606.9 c 0,0 -79.76,-107.359 -112.72,-151.727 -14.52,20.555 -54.14,76.633 -54.14,76.633 L 2336.8,588.281 c 0,0 40.02,-54.019 55.56,-74.996 -20.48,-27.937 -102.71,-140.078 -102.71,-140.078 l 102.41,-142.324 c 0,0 75.5,102.894 104.38,142.25 31.19,-42.137 102.3,-138.184 102.3,-138.184 h 187.94 v 567.973 z m -133,-259.164 c 0,-31.137 0,-35.692 0,-66.969 -11.89,16.238 -18.6,25.41 -24.69,33.703 6.12,8.246 12.78,17.235 24.69,33.266"
         style="fill:#ffffff;fill-opacity:1;fill-rule:nonzero;stroke:none"
         id="path20" />
      <path
         d="m 2170.66,821.473 -24.84,-31.817 c 0,0 -50.66,-64.894 -79.26,-101.531 -28.78,36.594 -89.27,113.527 -89.27,113.527 H 1747.7 c 0,0 79.03,-104.875 89.01,-118.117 0,-19.883 0,-448.586 0,-448.586 H 1995 c 0,0 0,183.235 0,280.305 23.41,-29.633 72.1,-91.258 72.1,-91.258 0,0 46.4,60.949 67.72,88.942 0,-108.051 0,-311.571 0,-311.571 L 2294.48,21.332 v 638.539 l -123.82,161.602"
         style="fill:#ffffff;fill-opacity:1;fill-rule:nonzero;stroke:none"
         id="path22" />
      <path
         d="M 141.508,801.492 H 7.60156 V 234.594 H 172.727 v 566.898 h -31.219"
         style="fill:#ffffff;fill-opacity:1;fill-rule:nonzero;stroke:none"
         id="path24" />
      <path
         d="m 1639.25,801.152 h -134.13 c 0,0 0,-90.242 0,-145.578 -52.92,57.024 -135.09,145.578 -135.09,145.578 h -226.17 c 0,0 95.36,-108.179 107.67,-122.136 0,-22.305 0,-444.422 0,-444.422 h 165.71 c 0,0 0,179.594 0,269.668 40.56,-44.551 78.88,-86.66 87.88,-96.543 0,-21.137 0,-187.781 0,-187.781 L 1670.46,40.8555 V 801.152 h -31.21"
         style="fill:#ffffff;fill-opacity:1;fill-rule:nonzero;stroke:none"
         id="path26" />
      <path
         d="M 903.613,822.266 878.469,788.039 580.789,382.727 691.43,234.594 h 428.82 l 107.61,146.836 z m -1.5,-268.434 c 27.34,-37.074 72.164,-97.875 108.907,-147.703 -64.579,0 -153.231,0 -217.817,0 36.746,49.828 81.57,110.629 108.91,147.703"
         style="fill:#ffffff;fill-opacity:1;fill-rule:nonzero;stroke:none"
         id="path28" />
      <path
         d="m 541.797,384.641 c 20.703,28.351 109.754,150.304 109.754,150.304 l -213.324,289.758 -25.102,-34.43 c 0,0 -20.98,-28.777 -40.926,-56.128 0,14.371 0,67.347 0,67.347 H 209.539 V 234.594 h 162.66 c 0,0 0,66.48 0,100.113 C 438.672,245.664 584.324,50.5586 584.324,50.5586 L 685.711,187.695 c 0,0 -121.813,166.676 -143.914,196.946 z M 433.469,545.188 c 3.082,4.207 3.301,4.507 6.199,8.46 2.887,-3.953 3.105,-4.253 6.18,-8.46 -6.141,0 -6.235,0 -12.379,0"
         style="fill:#ffffff;fill-opacity:1;fill-rule:nonzero;stroke:none"
         id="path30" />
      <path
         d="m 4079.07,773.445 h -143.41 l 69.74,-79.129 V 269.324 h 103.27 V 588.426 L 4258.98,423.32 V 235.648 L 4361.91,124.203 V 773.445 H 4258.98 V 579.551 l -179.91,193.894 v 0"
         style="fill:#ed1c24;fill-opacity:1;fill-rule:nonzero;stroke:none"
         id="path32" />
      <path
         d="M 3845.15,773.445 H 3580.98 V 412.398 l 105.23,-144.492 h 158.94 v 107.457 h -161.06 v 111.973 h 161.06 v 90.336 h -161.06 v 97.258 h 161.06 v 98.515 0"
         style="fill:#ed1c24;fill-opacity:1;fill-rule:nonzero;stroke:none"
         id="path34" />
      <path
         d="M 3158.83,696.734 V 374.422 h 239.05 l -239.05,322.312 z m 73.81,76.711 H 3058.51 V 269.324 h 334.1 l 106.02,141.656 -265.99,362.465 v 0"
         style="fill:#ed1c24;fill-opacity:1;fill-rule:evenodd;stroke:none"
         id="path36" />
      <path
         d="m 2858.04,773.789 h 102.69 V 269.324 h -102.69 v 504.465 0"
         style="fill:#ed1c24;fill-opacity:1;fill-rule:nonzero;stroke:none"
         id="path38" />
      <path
         d="M 2653.68,639.957 V 383.094 l -94.69,129.269 94.69,127.594 z m -39.21,-372.051 h 140.99 v 505.539 h -132.87 l -129.05,-173.703 -54.08,76.555 -63.82,-86.262 55.5,-74.906 -102.91,-140.352 64.07,-89.039 104.03,141.739 118.14,-159.571 v 0"
         style="fill:#ed1c24;fill-opacity:1;fill-rule:evenodd;stroke:none"
         id="path40" />
      <path
         d="m 1962.12,772.176 h -151.81 l 57.62,-76.453 V 267.906 h 95.86 v 338.957 l 102.85,-130.195 99.4,130.547 V 214.961 l 97.22,-109.633 V 651.031 L 2170.43,772.188 2066.64,639.25 1962.12,772.176 v 0"
         style="fill:#ed1c24;fill-opacity:1;fill-rule:nonzero;stroke:none"
         id="path42" />
      <path
         d="M 38.8164,772.02 H 141.508 V 267.559 H 38.8164 v 504.461 0"
         style="fill:#ed1c24;fill-opacity:1;fill-rule:nonzero;stroke:none"
         id="path44" />
      <path
         d="m 1356.41,771.676 h -143.42 l 69.75,-79.125 V 267.559 h 103.28 V 586.672 L 1536.33,421.551 V 233.887 L 1639.25,122.422 V 771.676 H 1536.33 V 577.781 l -179.92,193.895 v 0"
         style="fill:#ed1c24;fill-opacity:1;fill-rule:nonzero;stroke:none"
         id="path46" />
      <path
         d="M 902.113,608.18 731.406,376.652 H 1072.82 L 902.113,608.18 Z m 1.52,163.121 -284,-386.672 87.441,-117.07 h 397.346 l 84.72,115.582 -285.507,388.16 v 0"
         style="fill:#ed1c24;fill-opacity:1;fill-rule:evenodd;stroke:none"
         id="path48" />
      <path
         d="m 371.914,515.711 h 135.371 l -67.578,92.566 -67.793,-92.566 z M 240.758,772.02 H 340.98 V 640.082 L 438.348,773.629 612.84,536.613 503.133,386.375 646.977,189.551 584.207,104.656 340.98,430.441 V 267.559 H 240.758 v 504.461 0"
         style="fill:#ed1c24;fill-opacity:1;fill-rule:evenodd;stroke:none"
         id="path50" />
      <path
         d="m 3876.37,641.973 h -161.06 v -34.828 h 161.06 V 454.379 h -161.06 v -49.547 h 161.06 V 234.949 h -206.05 l -120.55,165.543 v 402.43 h 295.38 21.38 9.84 216.32 l 135.07,-145.574 v 145.574 h 134.15 31.21 V 42.6484 L 4227.76,221.707 v 187.785 l -87.87,96.528 V 236.359 h -165.71 v 444.426 l -97.81,110.973 z"
         style="fill:none;stroke:#231f20;stroke-width:8.504;stroke-linecap:butt;stroke-linejoin:miter;stroke-miterlimit:3.86369;stroke-dasharray:none;stroke-opacity:1"
         id="path52" />
      <path
         d="M 3248.46,802.922 3537.48,409.055 3408.24,236.359 h -380.95 v 566.563 h 205.35 z"
         style="fill:none;stroke:#231f20;stroke-width:8.504;stroke-linecap:butt;stroke-linejoin:miter;stroke-miterlimit:3.86369;stroke-dasharray:none;stroke-opacity:1"
         id="path54" />
      <path
         d="m 3190.04,403.891 h 145.82 l -145.82,196.605 z"
         style="fill:none;stroke:#231f20;stroke-width:8.504;stroke-linecap:butt;stroke-linejoin:miter;stroke-miterlimit:3.86369;stroke-dasharray:none;stroke-opacity:1"
         id="path56" />
      <path
         d="m 2960.73,803.262 h 31.22 V 236.359 h -165.13 v 566.903 z"
         style="fill:none;stroke:#231f20;stroke-width:8.504;stroke-linecap:butt;stroke-linejoin:miter;stroke-miterlimit:3.86369;stroke-dasharray:none;stroke-opacity:1"
         id="path58" />
      <path
         d="m 2622.46,543.758 -24.69,-33.266 24.69,-33.703 z"
         style="fill:none;stroke:#231f20;stroke-width:8.504;stroke-linecap:butt;stroke-linejoin:miter;stroke-miterlimit:3.86369;stroke-dasharray:none;stroke-opacity:1"
         id="path60" />
      <path
         d="M 2170.66,821.473 2294.48,659.871 V 379.785 l 97.88,133.5 -55.56,74.996 103.24,139.547 54.14,-76.633 112.72,151.727 h 148.56 31.22 V 234.949 h -187.94 l -102.3,138.184 -104.38,-142.25 -97.58,135.613 V 21.332 L 2134.82,201.367 V 512.938 L 2067.1,423.996 1995,515.254 V 234.949 h -158.29 v 448.586 l -89.01,118.117 h 229.59 l 89.27,-113.527 79.26,101.531 z"
         style="fill:none;stroke:#231f20;stroke-width:8.504;stroke-linecap:butt;stroke-linejoin:miter;stroke-miterlimit:3.86369;stroke-dasharray:none;stroke-opacity:1"
         id="path62" />
      <path
         d="m 141.508,801.492 h 31.219 V 234.594 H 7.60156 v 566.898 z"
         style="fill:none;stroke:#231f20;stroke-width:8.504;stroke-linecap:butt;stroke-linejoin:miter;stroke-miterlimit:3.86369;stroke-dasharray:none;stroke-opacity:1"
         id="path64" />
      <path
         d="m 1639.25,801.152 h 31.21 V 40.8555 L 1505.12,219.938 v 187.781 l -87.88,96.543 V 234.594 h -165.71 v 444.422 l -107.67,122.136 h 226.17 l 135.09,-145.578 v 145.578 z"
         style="fill:none;stroke:#231f20;stroke-width:8.504;stroke-linecap:butt;stroke-linejoin:miter;stroke-miterlimit:3.86369;stroke-dasharray:none;stroke-opacity:1"
         id="path66" />
      <path
         d="M 903.613,822.266 1227.86,381.43 1120.25,234.594 H 691.43 l -110.641,148.133 297.68,405.312 z"
         style="fill:none;stroke:#231f20;stroke-width:8.504;stroke-linecap:butt;stroke-linejoin:miter;stroke-miterlimit:3.86369;stroke-dasharray:none;stroke-opacity:1"
         id="path68" />
      <path
         d="M 902.113,553.832 793.203,406.129 h 217.817 z"
         style="fill:none;stroke:#231f20;stroke-width:8.504;stroke-linecap:butt;stroke-linejoin:miter;stroke-miterlimit:3.86369;stroke-dasharray:none;stroke-opacity:1"
         id="path70" />
      <path
         d="M 541.797,384.641 685.711,187.695 584.324,50.5586 372.199,334.707 V 234.594 h -162.66 v 566.898 h 162.66 v -67.347 l 40.926,56.128 25.102,34.43 213.324,-289.758 z"
         style="fill:none;stroke:#231f20;stroke-width:8.504;stroke-linecap:butt;stroke-linejoin:miter;stroke-miterlimit:3.86369;stroke-dasharray:none;stroke-opacity:1"
         id="path72" />
      <path
         d="m 433.469,545.188 h 12.379 l -6.18,8.46 z"
         style="fill:none;stroke:#231f20;stroke-width:8.504;stroke-linecap:butt;stroke-linejoin:miter;stroke-miterlimit:3.86369;stroke-dasharray:none;stroke-opacity:1"
         id="path74" />
    </g>
  </g>
</svg>
